#!OML:ASF C:\ViconDB\ViconDB\414\Spring2016\041811\Spring2016.ASF
:FULLY-SPECIFIED
:DEGREES
191
root 11.5865 17.8506 11.1836 -178.514 -5.92334 -179.9
lowerback 0.763179 1.79235 -3.99432
upperback 2.38839 2.3444 0.226452
thorax 1.85606 1.07058 2.48505
lowerneck -12.3621 -1.22878 -6.68585
upperneck 19.8027 -4.06836 13.1274
head 8.58125 -1.49845 5.09729
rclavicle -9.19379e-016 -6.95746e-015
rhumerus -75.1915 27.0532 -98.4533
rradius 82.6072
rwrist 38.3705
rhand -45.1135 -2.52874
rfingers 7.12502
rthumb -17.8929 -31.7256
lclavicle -9.19379e-016 -6.95746e-015
lhumerus -78.0522 -31.7851 100.824
lradius 79.3621
lwrist -38.6916
lhand -34.6565 0.235758
lfingers 7.12502
lthumb -7.81322 30.0714
rfemur 158.017 19.7716 -179.347
rtibia 36.1229
rfoot 2.78282 -59.0822
rtoes 1.25632e-013
lfemur -6.8972 -7.37687 -19.7011
ltibia 30.5455
lfoot -26.6189 -1.66366
ltoes -5.46658e-014
192
root 11.5552 17.8423 11.1631 -178.688 -5.97129 -180.293
lowerback 1.14612 1.84357 -4.47269
upperback 2.53964 2.38651 0.209585
thorax 1.7767 1.077 2.72483
lowerneck -12.1764 -1.2604 -6.88209
upperneck 19.5223 -4.11082 13.4256
head 8.46661 -1.51563 5.22294
rclavicle -1.73688e-014 -1.51076e-014
rhumerus -76.2889 27.4152 -98.9543
rradius 83.578
rwrist 38.7135
rhand -45.8323 -2.93006
rfingers 7.12502
rthumb -18.5844 -32.0623
lclavicle -1.73688e-014 -1.51076e-014
lhumerus -78.8996 -32.0436 101.634
lradius 80.1254
lwrist -38.7762
lhand -35.206 0.227203
lfingers 7.12502
lthumb -8.34361 30.0424
rfemur 156.859 19.097 -179.865
rtibia 37.9805
rfoot 5.52196 -61.409
rtoes 3.97569e-014
lfemur -6.51891 -7.4277 -20.2991
ltibia 30.4606
lfoot -26.7193 -1.60897
ltoes -3.67752e-014
193
root 11.5291 17.8483 11.1367 -179.128 -6.38129 -179.647
lowerback 1.6856 1.73726 -3.90287
upperback 2.77607 2.20743 0.407953
thorax 1.74338 0.986802 2.59755
lowerneck -12.2865 -1.2737 -6.65457
upperneck 19.4327 -4.15889 13.4173
head 8.45996 -1.51844 5.17227
rclavicle 2.65626e-014 -2.28602e-014
rhumerus -77.2695 27.889 -99.7253
rradius 84.5186
rwrist 39.0076
rhand -46.1763 -3.03061
rfingers 7.12502
rthumb -18.9153 -32.1309
lclavicle 2.65626e-014 -2.28602e-014
lhumerus -79.6849 -32.3823 102.364
lradius 80.7473
lwrist -38.5242
lhand -36.0914 0.388995
lfingers 7.12502
lthumb -9.19795 30.1684
rfemur 155.661 18.5154 -179.207
rtibia 39.6641
rfoot 8.38222 -62.9021
rtoes 1.24042e-013
lfemur -5.9103 -7.70497 -19.7177
ltibia 30.2083
lfoot -26.6931 -1.70385
ltoes -3.1408e-014
194
root 11.5008 17.8617 11.1057 -179.231 -6.65311 -179.447
lowerback 1.93187 1.66415 -3.81544
upperback 2.88978 2.09183 0.549988
thorax 1.72852 0.924321 2.69008
lowerneck -12.2554 -1.2664 -6.6821
upperneck 19.3456 -4.15526 13.514
head 8.42716 -1.51228 5.20876
rclavicle -1.4561e-014 1.41137e-014
rhumerus -78.2243 28.1273 -100.306
rradius 85.3804
rwrist 39.4897
rhand -46.5188 -2.71445
rfingers 7.12502
rthumb -19.2446 -31.7823
lclavicle -1.4561e-014 1.41137e-014
lhumerus -80.4683 -32.6625 103.196
lradius 81.3586
lwrist -38.354
lhand -36.6222 0.297019
lfingers 7.12502
lthumb -9.71016 30.0532
rfemur 155.037 18.2341 -178.885
rtibia 41.1553
rfoot 9.86618 -64.1028
rtoes 1.59028e-015
lfemur -5.56449 -7.73068 -19.5709
ltibia 29.8681
lfoot -26.6597 -1.85371
ltoes 1.33186e-014
195
root 11.4616 17.8801 11.0606 -179.159 -6.92248 -179.236
lowerback 1.78173 1.60514 -3.53431
upperback 3.00791 2.01748 0.610359
thorax 1.9466 0.884154 2.60184
lowerneck -12.3982 -1.30793 -6.38366
upperneck 19.4016 -4.25098 13.3746
head 8.47668 -1.54249 5.09862
rclavicle -6.48535e-015 -2.38542e-015
rhumerus -79.1795 28.2801 -101.036
rradius 86.1698
rwrist 39.7194
rhand -46.6403 -2.80439
rfingers 7.12502
rthumb -19.3615 -31.8605
lclavicle -6.48535e-015 -2.38542e-015
lhumerus -81.21 -33.1258 104.063
lradius 81.8878
lwrist -38.1232
lhand -37.1029 0.388907
lfingers 7.12502
lthumb -10.1739 30.1229
rfemur 154.856 18.5356 -178.476
rtibia 42.3065
rfoot 10.1147 -65.3839
rtoes 1.04958e-013
lfemur -5.33506 -7.74071 -19.4516
ltibia 29.5508
lfoot -26.5561 -2.0793
ltoes 1.51076e-014
196
root 11.4325 17.8921 11.0245 -179.127 -7.48167 -178.985
lowerback 1.8805 1.44243 -3.26696
upperback 3.06968 1.7931 0.697611
thorax 1.97527 0.773361 2.54133
lowerneck -12.338 -1.27494 -6.34719
upperneck 19.3026 -4.27832 13.6376
head 8.44098 -1.53867 5.17758
rclavicle 1.96548e-014 -4.77083e-015
rhumerus -80.0502 28.3143 -101.756
rradius 87.0455
rwrist 38.9825
rhand -46.9528 -0.854465
rfingers 7.12502
rthumb -19.6619 -29.8801
lclavicle 1.96548e-014 -4.77083e-015
lhumerus -81.7408 -33.4706 104.705
lradius 82.2036
lwrist -37.9739
lhand -37.4545 0.147967
lfingers 7.12502
lthumb -10.5131 29.8651
rfemur 154.82 19.0877 -177.948
rtibia 43.2481
rfoot 11.1714 -66.2489
rtoes 3.65764e-014
lfemur -5.15115 -7.91163 -19.2109
ltibia 29.1962
lfoot -26.3977 -2.42064
ltoes -2.68359e-014
197
root 11.3913 17.914 10.9738 -178.982 -7.94799 -178.76
lowerback 1.74523 1.24998 -2.91619
upperback 3.07574 1.54158 0.82405
thorax 2.07937 0.6524 2.4792
lowerneck -12.2573 -1.25216 -6.43505
upperneck 19.3144 -4.25722 13.716
head 8.43017 -1.53343 5.22282
rclavicle 3.15322e-014 1.49089e-015
rhumerus -81.0274 28.4531 -102.433
rradius 87.6283
rwrist 39.3814
rhand -47.5023 -1.64055
rfingers 7.12502
rthumb -20.1901 -30.6113
lclavicle 3.15322e-014 1.49089e-015
lhumerus -82.2516 -33.6706 105.55
lradius 82.4113
lwrist -37.6849
lhand -37.8416 0.419612
lfingers 7.12502
lthumb -10.8865 30.1174
rfemur 155.173 19.8413 -177.43
rtibia 43.8467
rfoot 11.6996 -66.9187
rtoes 3.18055e-014
lfemur -5.01892 -8.41537 -19.0471
ltibia 28.8684
lfoot -26.3825 -2.63008
ltoes -6.0033e-014
